<svg xmlns="http://www.w3.org/2000/svg" viewBox="0 0 512 512">
  <rect width="512" height="512" rx="100" fill="#0f172a"/>
  <path fill="#fb923c" d="M495.9 166.6c3.2 8.7.5 18.4-6.4 24.6l-43.3 39.4c1.1 8.3 1.7 16.8 1.7 25.4s-.6 17.1-1.7 25.4l43.3 39.4c6.9 6.2 9.6 15.9 6.4 24.6-4.4 11.9-9.7 23.3-15.8 34.3l-4.7 8.1c-6.6 11-14 21.4-22.1 31.2-5.9 7.2-15.7 9.9-24.5 7.4l-57.3-16.2c-13.6 9.5-28.3 17.6-43.9 24.2l-13.3 57.7c-2 8.7-8.7 15.5-17.4 17.5-13.1 3-26.5 4.6-40.3 4.6s-27.2-1.6-40.3-4.6c-8.7-2-15.4-8.8-17.4-17.5l-13.3-57.7c-15.6-6.6-30.3-14.7-43.9-24.2L83.1 425.9c-8.8 2.5-18.6-.2-24.5-7.4-8.1-9.8-15.5-20.2-22.1-31.2l-4.7-8.1c-6.1-11-11.4-22.4-15.8-34.3-3.2-8.7-.5-18.4 6.4-24.6l43.3-39.4C64.6 273.1 64 264.6 64 256s.6-17.1 1.7-25.4L22.4 191.2c-6.9-6.2-9.6-15.9-6.4-24.6 4.4-11.9 9.7-23.3 15.8-34.3l4.7-8.1c6.6-11 14-21.4 22.1-31.2 5.9-7.2 15.7-9.9 24.5-7.4l57.3 16.2c13.6-9.5 28.3-17.6 43.9-24.2l13.3-57.7c2-8.7 8.7-15.5 17.4-17.5C228.8 1.6 242.2 0 256 0s27.2 1.6 40.3 4.6c8.7 2 15.4 8.8 17.4 17.5l13.3 57.7c15.6 6.6 30.3 14.7 43.9 24.2l57.3-16.2c8.8-2.5 18.6.2 24.5 7.4 8.1 9.8 15.5 20.2 22.1 31.2l4.7 8.1c6.1 11 11.4 22.4 15.8 34.3zM256 336a80 80 0 1 0 0-160 80 80 0 1 0 0 160z"/>
</svg>
